<svg xmlns="http://www.w3.org/2000/svg" viewBox="0 0 64 64">
  <defs>
    <linearGradient id="g" x1="0" y1="0" x2="1" y2="1">
      <stop offset="0" stop-color="#7dd3fc"/>
      <stop offset="1" stop-color="#38bdf8"/>
    </linearGradient>
  </defs>
  <rect width="64" height="64" rx="16" fill="#0a1322"/>
  <g stroke="url(#g)" stroke-width="4" stroke-linecap="round">
    <line x1="32" y1="10" x2="32" y2="54"/>
    <line x1="12.9" y1="21" x2="51.1" y2="43"/>
    <line x1="12.9" y1="43" x2="51.1" y2="21"/>
    <line x1="32" y1="10" x2="26" y2="16"/>
    <line x1="32" y1="10" x2="38" y2="16"/>
    <line x1="32" y1="54" x2="26" y2="48"/>
    <line x1="32" y1="54" x2="38" y2="48"/>
    <line x1="12.9" y1="21" x2="21.1" y2="20.3"/>
    <line x1="12.9" y1="21" x2="13.6" y2="29.2"/>
    <line x1="51.1" y1="43" x2="42.9" y2="43.7"/>
    <line x1="51.1" y1="43" x2="50.4" y2="34.8"/>
    <line x1="12.9" y1="43" x2="13.6" y2="34.8"/>
    <line x1="12.9" y1="43" x2="21.1" y2="43.7"/>
    <line x1="51.1" y1="21" x2="50.4" y2="29.2"/>
    <line x1="51.1" y1="21" x2="42.9" y2="20.3"/>
  </g>
</svg>
