<svg xmlns="http://www.w3.org/2000/svg" viewBox="0 0 200 130" fill="none">
  <rect width="200" height="130" fill="#0d1a0d"/>

  <!-- Background ambient glow -->
  <ellipse cx="100" cy="90" rx="80" ry="40" fill="#1a3a1a" opacity="0.6"/>

  <!-- Left stem -->
  <path d="M45 125 Q48 100 42 72" stroke="#3d5c35" stroke-width="2.5" fill="none" stroke-linecap="round"/>
  <ellipse cx="38" cy="88" rx="13" ry="6" fill="#2d4a28" opacity="0.9" transform="rotate(-35 38 88)"/>
  <ellipse cx="48" cy="76" rx="11" ry="5" fill="#3d5c35" opacity="0.8" transform="rotate(20 48 76)"/>
  <!-- Left flower -->
  <circle cx="42" cy="66" r="5.5" fill="#b8a4c8" opacity="0.85"/>
  <circle cx="50" cy="62" r="5.5" fill="#b8a4c8" opacity="0.85"/>
  <circle cx="55" cy="68" r="5.5" fill="#b8a4c8" opacity="0.85"/>
  <circle cx="50" cy="74" r="5.5" fill="#b8a4c8" opacity="0.85"/>
  <circle cx="42" cy="74" r="5.5" fill="#b8a4c8" opacity="0.85"/>
  <circle cx="48" cy="68" r="6.5" fill="#d4c0e0"/>

  <!-- Center stem -->
  <path d="M100 125 Q97 95 100 60" stroke="#4a6741" stroke-width="3" fill="none" stroke-linecap="round"/>
  <ellipse cx="92" cy="85" rx="16" ry="7" fill="#3d5c35" opacity="0.9" transform="rotate(-25 92 85)"/>
  <ellipse cx="108" cy="72" rx="14" ry="6" fill="#4a6741" opacity="0.8" transform="rotate(15 108 72)"/>
  <!-- Center flower (larger) -->
  <circle cx="100" cy="50" r="7" fill="#c9a96e" opacity="0.9"/>
  <circle cx="110" cy="45" r="7" fill="#c9a96e" opacity="0.9"/>
  <circle cx="115" cy="54" r="7" fill="#c9a96e" opacity="0.9"/>
  <circle cx="108" cy="63" r="7" fill="#c9a96e" opacity="0.9"/>
  <circle cx="98" cy="63" r="7" fill="#c9a96e" opacity="0.9"/>
  <circle cx="93" cy="54" r="7" fill="#c9a96e" opacity="0.9"/>
  <circle cx="104" cy="54" r="9" fill="#e8c987"/>

  <!-- Right stem -->
  <path d="M158 125 Q162 98 156 65" stroke="#4a6741" stroke-width="2.5" fill="none" stroke-linecap="round"/>
  <ellipse cx="163" cy="90" rx="12" ry="5" fill="#3d5c35" opacity="0.8" transform="rotate(30 163 90)"/>
  <ellipse cx="153" cy="76" rx="10" ry="5" fill="#4a6741" opacity="0.7" transform="rotate(-20 153 76)"/>
  <!-- Right flower -->
  <circle cx="156" cy="56" r="5" fill="#a8c5a0" opacity="0.9"/>
  <circle cx="163" cy="52" r="5" fill="#a8c5a0" opacity="0.9"/>
  <circle cx="168" cy="58" r="5" fill="#a8c5a0" opacity="0.9"/>
  <circle cx="163" cy="65" r="5" fill="#a8c5a0" opacity="0.9"/>
  <circle cx="155" cy="65" r="5" fill="#a8c5a0" opacity="0.9"/>
  <circle cx="161" cy="58" r="6.5" fill="#c5dcc0"/>

  <!-- Small accent buds -->
  <circle cx="70" cy="95" r="3" fill="#8a9e85" opacity="0.6"/>
  <circle cx="130" cy="88" r="3.5" fill="#b8c4b4" opacity="0.5"/>
  <circle cx="25" cy="105" r="2.5" fill="#7a8e76" opacity="0.5"/>
  <circle cx="175" cy="100" r="3" fill="#8a9e85" opacity="0.5"/>
</svg>
